<svg width="20" height="21" viewBox="0 0 20 21" fill="none" xmlns="http://www.w3.org/2000/svg">
<path d="M5.04375 3.29523L4.7025 2.93773C4.36125 2.58023 3.81 2.58939 3.4775 2.93773L3.46875 2.94689C3.1275 3.30439 3.1275 3.88189 3.46875 4.23023L3.81 4.58773C4.15125 4.94523 4.69375 4.94523 5.035 4.58773L5.04375 4.57856C5.385 4.23023 5.385 3.64356 5.04375 3.29523ZM2.38375 9.12523H1.49125C1.01 9.12523 0.625 9.52856 0.625 10.0327V10.0419C0.625 10.5461 1.01 10.9494 1.49125 10.9494H2.375C2.865 10.9586 3.25 10.5552 3.25 10.0511V10.0419C3.25 9.52856 2.865 9.12523 2.38375 9.12523ZM10.2588 0.00439453H10.25C9.76 0.00439453 9.375 0.407728 9.375 0.911895V1.79189C9.375 2.29606 9.76 2.69939 10.2413 2.69939H10.25C10.74 2.70856 11.125 2.30523 11.125 1.80106V0.911895C11.125 0.407728 10.74 0.00439453 10.2588 0.00439453ZM17.0313 2.94689C16.69 2.58939 16.1388 2.58939 15.7975 2.93773L15.4563 3.29523C15.115 3.65273 15.115 4.23023 15.4563 4.57856L15.465 4.58773C15.8063 4.94523 16.3575 4.94523 16.69 4.58773L17.0313 4.23023C17.3725 3.87273 17.3725 3.30439 17.0313 2.94689ZM15.4475 16.7886L15.7888 17.1461C16.13 17.5036 16.6813 17.5036 17.0225 17.1461C17.3638 16.7886 17.3638 16.2111 17.0225 15.8536L16.6813 15.4961C16.34 15.1386 15.7888 15.1477 15.4563 15.4961C15.1063 15.8627 15.1063 16.4311 15.4475 16.7886ZM17.25 10.0327V10.0419C17.25 10.5461 17.635 10.9494 18.1163 10.9494H19C19.4813 10.9494 19.8663 10.5461 19.8663 10.0419V10.0327C19.8663 9.52856 19.4813 9.12523 19 9.12523H18.1163C17.635 9.12523 17.25 9.52856 17.25 10.0327ZM10.25 4.54189C7.35375 4.54189 5 7.00773 5 10.0419C5 13.0761 7.35375 15.5419 10.25 15.5419C13.1463 15.5419 15.5 13.0761 15.5 10.0419C15.5 7.00773 13.1463 4.54189 10.25 4.54189ZM10.2413 20.0794H10.25C10.7313 20.0794 11.1163 19.6761 11.1163 19.1719V18.2919C11.1163 17.7877 10.7313 17.3844 10.25 17.3844H10.2413C9.76 17.3844 9.375 17.7877 9.375 18.2919V19.1719C9.375 19.6761 9.76 20.0794 10.2413 20.0794ZM3.46875 17.1369C3.81 17.4944 4.36125 17.4944 4.7025 17.1369L5.04375 16.7794C5.385 16.4219 5.37625 15.8444 5.04375 15.4961L5.035 15.4869C4.69375 15.1294 4.1425 15.1294 3.80125 15.4869L3.46 15.8444C3.1275 16.2111 3.1275 16.7794 3.46875 17.1369Z" fill="#2C2F32"/>
</svg>
